<svg width="323" height="63" viewBox="0 0 323 63" fill="none" xmlns="http://www.w3.org/2000/svg">
<path d="M40.5 63C57.897 63 72 48.897 72 31.5C72 14.103 57.897 0 40.5 0C23.103 0 9 14.103 9 31.5C9 48.897 23.103 63 40.5 63Z" fill="#34D544"/>
<path d="M55 0H46V63H55V0Z" fill="#F8F4D3"/>
<path d="M73.75 24.5999C72.95 23.1332 71.85 22.0166 70.45 21.2499C69.05 20.4832 67.4167 20.0999 65.55 20.0999C63.4833 20.0999 61.65 20.5666 60.05 21.4999C58.45 22.4332 57.2 23.7666 56.3 25.4999C55.4 27.2332 54.95 29.2332 54.95 31.4999C54.95 33.8332 55.4 35.8666 56.3 37.5999C57.2333 39.3332 58.5167 40.6666 60.15 41.5999C61.7833 42.5332 63.6833 42.9999 65.85 42.9999C68.5167 42.9999 70.7 42.2999 72.4 40.8999C74.1 39.4666 75.2167 37.4832 75.75 34.9499H63.75V29.5999H82.65V35.6999C82.1833 38.1332 81.1833 40.3832 79.65 42.4499C78.1167 44.5166 76.1333 46.1832 73.7 47.4499C71.3 48.6832 68.6 49.2999 65.6 49.2999C62.2333 49.2999 59.1833 48.5499 56.45 47.0499C53.75 45.5166 51.6167 43.3999 50.05 40.6999C48.5167 37.9999 47.75 34.9332 47.75 31.4999C47.75 28.0666 48.5167 24.9999 50.05 22.2999C51.6167 19.5666 53.75 17.4499 56.45 15.9499C59.1833 14.4166 62.2167 13.6499 65.55 13.6499C69.4833 13.6499 72.9 14.6166 75.8 16.5499C78.7 18.4499 80.7 21.1332 81.8 24.5999H73.75ZM94.8289 25.5999C95.7289 24.1332 96.8956 22.9832 98.3289 22.1499C99.7956 21.3166 101.462 20.8999 103.329 20.8999V28.2499H101.479C99.2789 28.2499 97.6122 28.7666 96.4789 29.7999C95.3789 30.8332 94.8289 32.6332 94.8289 35.1999V48.9999H87.8289V21.2999H94.8289V25.5999ZM133.794 34.5499C133.794 35.5499 133.727 36.4499 133.594 37.2499H113.344C113.51 39.2499 114.21 40.8166 115.444 41.9499C116.677 43.0832 118.194 43.6499 119.994 43.6499C122.594 43.6499 124.444 42.5332 125.544 40.2999H133.094C132.294 42.9666 130.76 45.1666 128.494 46.8999C126.227 48.5999 123.444 49.4499 120.144 49.4499C117.477 49.4499 115.077 48.8666 112.944 47.6999C110.844 46.4999 109.194 44.8166 107.994 42.6499C106.827 40.4832 106.244 37.9832 106.244 35.1499C106.244 32.2832 106.827 29.7666 107.994 27.5999C109.16 25.4332 110.794 23.7666 112.894 22.5999C114.994 21.4332 117.41 20.8499 120.144 20.8499C122.777 20.8499 125.127 21.4166 127.194 22.5499C129.294 23.6832 130.91 25.2999 132.044 27.3999C133.21 29.4666 133.794 31.8499 133.794 34.5499ZM126.544 32.5499C126.51 30.7499 125.86 29.3166 124.594 28.2499C123.327 27.1499 121.777 26.5999 119.944 26.5999C118.21 26.5999 116.744 27.1332 115.544 28.1999C114.377 29.2332 113.66 30.6832 113.394 32.5499H126.544ZM164.653 34.5499C164.653 35.5499 164.586 36.4499 164.453 37.2499H144.203C144.37 39.2499 145.07 40.8166 146.303 41.9499C147.536 43.0832 149.053 43.6499 150.853 43.6499C153.453 43.6499 155.303 42.5332 156.403 40.2999H163.953C163.153 42.9666 161.62 45.1666 159.353 46.8999C157.086 48.5999 154.303 49.4499 151.003 49.4499C148.336 49.4499 145.936 48.8666 143.803 47.6999C141.703 46.4999 140.053 44.8166 138.853 42.6499C137.686 40.4832 137.103 37.9832 137.103 35.1499C137.103 32.2832 137.686 29.7666 138.853 27.5999C140.02 25.4332 141.653 23.7666 143.753 22.5999C145.853 21.4332 148.27 20.8499 151.003 20.8499C153.636 20.8499 155.986 21.4166 158.053 22.5499C160.153 23.6832 161.77 25.2999 162.903 27.3999C164.07 29.4666 164.653 31.8499 164.653 34.5499ZM157.403 32.5499C157.37 30.7499 156.72 29.3166 155.453 28.2499C154.186 27.1499 152.636 26.5999 150.803 26.5999C149.07 26.5999 147.603 27.1332 146.403 28.1999C145.236 29.2332 144.52 30.6832 144.253 32.5499H157.403ZM185.113 20.8999C188.413 20.8999 191.079 21.9499 193.113 24.0499C195.146 26.1166 196.163 29.0166 196.163 32.7499V48.9999H189.163V33.6999C189.163 31.4999 188.613 29.8166 187.513 28.6499C186.413 27.4499 184.913 26.8499 183.013 26.8499C181.079 26.8499 179.546 27.4499 178.413 28.6499C177.313 29.8166 176.763 31.4999 176.763 33.6999V48.9999H169.763V21.2999H176.763V24.7499C177.696 23.5499 178.879 22.6166 180.313 21.9499C181.779 21.2499 183.379 20.8999 185.113 20.8999ZM201.119 31.4999C201.119 28.0666 201.886 24.9999 203.419 22.2999C204.986 19.5666 207.102 17.4499 209.769 15.9499C212.469 14.4166 215.486 13.6499 218.819 13.6499C222.719 13.6499 226.136 14.6499 229.069 16.6499C232.002 18.6499 234.052 21.4166 235.219 24.9499H227.169C226.369 23.2832 225.236 22.0332 223.769 21.1999C222.336 20.3666 220.669 19.9499 218.769 19.9499C216.736 19.9499 214.919 20.4332 213.319 21.3999C211.752 22.3332 210.519 23.6666 209.619 25.3999C208.752 27.1332 208.319 29.1666 208.319 31.4999C208.319 33.7999 208.752 35.8332 209.619 37.5999C210.519 39.3332 211.752 40.6832 213.319 41.6499C214.919 42.5832 216.736 43.0499 218.769 43.0499C220.669 43.0499 222.336 42.6332 223.769 41.7999C225.236 40.9332 226.369 39.6666 227.169 37.9999H235.219C234.052 41.5666 232.002 44.3499 229.069 46.3499C226.169 48.3166 222.752 49.2999 218.819 49.2999C215.486 49.2999 212.469 48.5499 209.769 47.0499C207.102 45.5166 204.986 43.3999 203.419 40.6999C201.886 37.9999 201.119 34.9332 201.119 31.4999ZM253.498 49.4499C250.831 49.4499 248.431 48.8666 246.298 47.6999C244.165 46.4999 242.481 44.8166 241.248 42.6499C240.048 40.4832 239.448 37.9832 239.448 35.1499C239.448 32.3166 240.065 29.8166 241.298 27.6499C242.565 25.4832 244.281 23.8166 246.448 22.6499C248.615 21.4499 251.031 20.8499 253.698 20.8499C256.365 20.8499 258.781 21.4499 260.948 22.6499C263.115 23.8166 264.815 25.4832 266.048 27.6499C267.315 29.8166 267.948 32.3166 267.948 35.1499C267.948 37.9832 267.298 40.4832 265.998 42.6499C264.731 44.8166 262.998 46.4999 260.798 47.6999C258.631 48.8666 256.198 49.4499 253.498 49.4499ZM253.498 43.3499C254.765 43.3499 255.948 43.0499 257.048 42.4499C258.181 41.8166 259.081 40.8832 259.748 39.6499C260.415 38.4166 260.748 36.9166 260.748 35.1499C260.748 32.5166 260.048 30.4999 258.648 29.0999C257.281 27.6666 255.598 26.9499 253.598 26.9499C251.598 26.9499 249.915 27.6666 248.548 29.0999C247.215 30.4999 246.548 32.5166 246.548 35.1499C246.548 37.7832 247.198 39.8166 248.498 41.2499C249.831 42.6499 251.498 43.3499 253.498 43.3499ZM280.083 25.5999C280.983 24.1332 282.149 22.9832 283.583 22.1499C285.049 21.3166 286.716 20.8999 288.583 20.8999V28.2499H286.733C284.533 28.2499 282.866 28.7666 281.733 29.7999C280.633 30.8332 280.083 32.6332 280.083 35.1999V48.9999H273.083V21.2999H280.083V25.5999ZM300.298 25.2999C301.198 24.0332 302.431 22.9832 303.998 22.1499C305.598 21.2832 307.414 20.8499 309.448 20.8499C311.814 20.8499 313.948 21.4332 315.848 22.5999C317.781 23.7666 319.298 25.4332 320.398 27.5999C321.531 29.7332 322.098 32.2166 322.098 35.0499C322.098 37.8832 321.531 40.3999 320.398 42.5999C319.298 44.7666 317.781 46.4499 315.848 47.6499C313.948 48.8499 311.814 49.4499 309.448 49.4499C307.414 49.4499 305.614 49.0332 304.048 48.1999C302.514 47.3666 301.264 46.3166 300.298 45.0499V62.1999H293.298V21.2999H300.298V25.2999ZM314.948 35.0499C314.948 33.3832 314.598 31.9499 313.898 30.7499C313.231 29.5166 312.331 28.5832 311.198 27.9499C310.098 27.3166 308.898 26.9999 307.598 26.9999C306.331 26.9999 305.131 27.3332 303.998 27.9999C302.898 28.6332 301.998 29.5666 301.298 30.7999C300.631 32.0332 300.298 33.4832 300.298 35.1499C300.298 36.8166 300.631 38.2666 301.298 39.4999C301.998 40.7332 302.898 41.6832 303.998 42.3499C305.131 42.9832 306.331 43.2999 307.598 43.2999C308.898 43.2999 310.098 42.9666 311.198 42.2999C312.331 41.6332 313.231 40.6832 313.898 39.4499C314.598 38.2166 314.948 36.7499 314.948 35.0499Z" fill="#213053"/>
<mask id="mask0_19983_59936" style="mask-type:alpha" maskUnits="userSpaceOnUse" x="0" y="0" width="63" height="63">
<path d="M31.5 63C48.897 63 63 48.897 63 31.5C63 14.103 48.897 0 31.5 0C14.103 0 0 14.103 0 31.5C0 48.897 14.103 63 31.5 63Z" fill="#34D544"/>
</mask>
<g mask="url(#mask0_19983_59936)">
</g>
</svg>
